HIERARCHY
ROOT Hips
{
	OFFSET -335.845001 -574.368103 89.378365
	CHANNELS 6 Xposition Yposition Zposition Zrotation Yrotation Xrotation
	JOINT Spine
	{
		OFFSET 0.000000 2.080078 8.814247
		CHANNELS 6 Xposition Yposition Zposition Zrotation Yrotation Xrotation
		JOINT Spine1
		{
			OFFSET 0.000000 0.000000 8.844139
			CHANNELS 6 Xposition Yposition Zposition Zrotation Yrotation Xrotation
			JOINT Spine2
			{
				OFFSET 0.000000 0.000000 11.682266
				CHANNELS 6 Xposition Yposition Zposition Zrotation Yrotation Xrotation
				JOINT Spine3
				{
					OFFSET 0.000000 0.000000 11.746696
					CHANNELS 6 Xposition Yposition Zposition Zrotation Yrotation Xrotation
					JOINT Neck
					{
						OFFSET 0.000000 0.000000 17.658264
						CHANNELS 6 Xposition Yposition Zposition Zrotation Yrotation Xrotation
						JOINT Neck1
						{
							OFFSET 0.000000 0.000000 5.101517
							CHANNELS 6 Xposition Yposition Zposition Zrotation Yrotation Xrotation
							JOINT Head
							{
								OFFSET 0.000000 0.000000 5.101517
								CHANNELS 6 Xposition Yposition Zposition Zrotation Yrotation Xrotation
								JOINT HeadEnd
								{
									OFFSET 0.000000 0.000000 11.655090
									CHANNELS 6 Xposition Yposition Zposition Zrotation Yrotation Xrotation
									End Site
									{
										OFFSET 0.000000 0.000000 0.100006
									}
								}
							}
						}
					}
					JOINT RightShoulder
					{
						OFFSET -2.625397 0.000000 11.175217
						CHANNELS 6 Xposition Yposition Zposition Zrotation Yrotation Xrotation
						JOINT RightArm
						{
							OFFSET 0.000000 0.000000 10.434708
							CHANNELS 6 Xposition Yposition Zposition Zrotation Yrotation Xrotation
							JOINT RightForeArm
							{
								OFFSET 0.000000 0.000000 29.628418
								CHANNELS 6 Xposition Yposition Zposition Zrotation Yrotation Xrotation
								JOINT RightHand
								{
									OFFSET 0.000000 0.000000 22.857605
									CHANNELS 6 Xposition Yposition Zposition Zrotation Yrotation Xrotation
									JOINT RightHandThumb1
									{
										OFFSET -2.867310 -2.944275 3.959564
										CHANNELS 6 Xposition Yposition Zposition Zrotation Yrotation Xrotation
										JOINT RightHandThumb2
										{
											OFFSET 0.000000 0.000000 3.350403
											CHANNELS 6 Xposition Yposition Zposition Zrotation Yrotation Xrotation
											JOINT RightHandThumb3
											{
												OFFSET 0.000000 0.000000 3.756516
												CHANNELS 6 Xposition Yposition Zposition Zrotation Yrotation Xrotation
												JOINT RightHandThumb4
												{
													OFFSET 0.000000 0.000000 3.147339
													CHANNELS 6 Xposition Yposition Zposition Zrotation Yrotation Xrotation
													End Site
													{
														OFFSET 0.000000 0.000000 0.100006
													}
												}
											}
										}
									}
									JOINT RightHandIndex1
									{
										OFFSET -0.086761 -2.345276 10.030899
										CHANNELS 6 Xposition Yposition Zposition Zrotation Yrotation Xrotation
										JOINT RightHandIndex2
										{
											OFFSET 0.000000 0.000000 4.061096
											CHANNELS 6 Xposition Yposition Zposition Zrotation Yrotation Xrotation
											JOINT RightHandIndex3
											{
												OFFSET 0.000000 0.000000 3.248871
												CHANNELS 6 Xposition Yposition Zposition Zrotation Yrotation Xrotation
												JOINT RightHandIndex4
												{
													OFFSET 0.000000 0.000000 2.639709
													CHANNELS 6 Xposition Yposition Zposition Zrotation Yrotation Xrotation
													End Site
													{
														OFFSET 0.000000 0.000000 0.100006
													}
												}
											}
										}
									}
									JOINT RightHandMiddle1
									{
										OFFSET 0.104095 -0.006775 9.502945
										CHANNELS 6 Xposition Yposition Zposition Zrotation Yrotation Xrotation
										JOINT RightHandMiddle2
										{
											OFFSET 0.000000 0.000000 4.568726
											CHANNELS 6 Xposition Yposition Zposition Zrotation Yrotation Xrotation
											JOINT RightHandMiddle3
											{
												OFFSET 0.000000 0.000000 3.654984
												CHANNELS 6 Xposition Yposition Zposition Zrotation Yrotation Xrotation
												JOINT RightHandMiddle4
												{
													OFFSET 0.000000 0.000000 2.741241
													CHANNELS 6 Xposition Yposition Zposition Zrotation Yrotation Xrotation
													End Site
													{
														OFFSET 0.000000 0.000000 0.100006
													}
												}
											}
										}
									}
									JOINT RightHandRing1
									{
										OFFSET 0.086761 2.267456 8.921707
										CHANNELS 6 Xposition Yposition Zposition Zrotation Yrotation Xrotation
										JOINT RightHandRing2
										{
											OFFSET 0.000000 0.000000 4.061096
											CHANNELS 6 Xposition Yposition Zposition Zrotation Yrotation Xrotation
											JOINT RightHandRing3
											{
												OFFSET 0.000000 0.000000 3.654984
												CHANNELS 6 Xposition Yposition Zposition Zrotation Yrotation Xrotation
												JOINT RightHandRing4
												{
													OFFSET 0.000000 0.000000 2.741241
													CHANNELS 6 Xposition Yposition Zposition Zrotation Yrotation Xrotation
													End Site
													{
														OFFSET 0.000000 0.000000 0.100006
													}
												}
											}
										}
									}
									JOINT RightHandPinky1
									{
										OFFSET -0.173492 4.467224 7.976990
										CHANNELS 6 Xposition Yposition Zposition Zrotation Yrotation Xrotation
										JOINT RightHandPinky2
										{
											OFFSET 0.000000 0.000000 3.350403
											CHANNELS 6 Xposition Yposition Zposition Zrotation Yrotation Xrotation
											JOINT RightHandPinky3
											{
												OFFSET 0.000000 0.000000 2.842758
												CHANNELS 6 Xposition Yposition Zposition Zrotation Yrotation Xrotation
												JOINT RightHandPinky4
												{
													OFFSET 0.000000 0.000000 2.639709
													CHANNELS 6 Xposition Yposition Zposition Zrotation Yrotation Xrotation
													End Site
													{
														OFFSET 0.000000 0.000000 0.100006
													}
												}
											}
										}
									}
									JOINT RightForeArmEnd
									{
										OFFSET 0.000000 0.000000 0.000000
										CHANNELS 6 Xposition Yposition Zposition Zrotation Yrotation Xrotation
										End Site
										{
											OFFSET 0.000000 0.000000 0.100006
										}
									}
								}
								JOINT RightArmEnd
								{
									OFFSET 0.000000 0.000000 0.000000
									CHANNELS 6 Xposition Yposition Zposition Zrotation Yrotation Xrotation
									End Site
									{
										OFFSET 0.000000 0.000000 0.100006
									}
								}
							}
						}
					}
					JOINT LeftShoulder
					{
						OFFSET 2.625397 0.000000 11.175217
						CHANNELS 6 Xposition Yposition Zposition Zrotation Yrotation Xrotation
						JOINT LeftArm
						{
							OFFSET 0.000000 0.000000 10.813629
							CHANNELS 6 Xposition Yposition Zposition Zrotation Yrotation Xrotation
							JOINT LeftForeArm
							{
								OFFSET 0.000000 0.000000 28.724777
								CHANNELS 6 Xposition Yposition Zposition Zrotation Yrotation Xrotation
								JOINT LeftHand
								{
									OFFSET 0.644379 0.328857 25.716171
									CHANNELS 6 Xposition Yposition Zposition Zrotation Yrotation Xrotation
									JOINT LeftHandThumb1
									{
										OFFSET 2.867310 -2.944275 3.959564
										CHANNELS 6 Xposition Yposition Zposition Zrotation Yrotation Xrotation
										JOINT LeftHandThumb2
										{
											OFFSET 0.000000 0.000000 3.350403
											CHANNELS 6 Xposition Yposition Zposition Zrotation Yrotation Xrotation
											JOINT LeftHandThumb3
											{
												OFFSET 0.000000 0.000000 3.756516
												CHANNELS 6 Xposition Yposition Zposition Zrotation Yrotation Xrotation
												JOINT LeftHandThumb4
												{
													OFFSET 0.000000 0.000000 3.100006
													CHANNELS 6 Xposition Yposition Zposition Zrotation Yrotation Xrotation
													End Site
													{
														OFFSET 0.000000 0.000000 0.100006
													}
												}
											}
										}
									}
									JOINT LeftHandIndex1
									{
										OFFSET 0.086761 -2.345276 10.030899
										CHANNELS 6 Xposition Yposition Zposition Zrotation Yrotation Xrotation
										JOINT LeftHandIndex2
										{
											OFFSET 0.000000 0.000000 4.061096
											CHANNELS 6 Xposition Yposition Zposition Zrotation Yrotation Xrotation
											JOINT LeftHandIndex3
											{
												OFFSET 0.000000 0.000000 3.248871
												CHANNELS 6 Xposition Yposition Zposition Zrotation Yrotation Xrotation
												JOINT LeftHandIndex4
												{
													OFFSET 0.000000 0.000000 2.639709
													CHANNELS 6 Xposition Yposition Zposition Zrotation Yrotation Xrotation
													End Site
													{
														OFFSET 0.000000 0.000000 0.100006
													}
												}
											}
										}
									}
									JOINT LeftHandMiddle1
									{
										OFFSET -0.104095 -0.006775 9.502945
										CHANNELS 6 Xposition Yposition Zposition Zrotation Yrotation Xrotation
										JOINT LeftHandMiddle2
										{
											OFFSET 0.000000 0.000000 4.568726
											CHANNELS 6 Xposition Yposition Zposition Zrotation Yrotation Xrotation
											JOINT LeftHandMiddle3
											{
												OFFSET 0.000000 0.000000 3.654984
												CHANNELS 6 Xposition Yposition Zposition Zrotation Yrotation Xrotation
												JOINT LeftHandMiddle4
												{
													OFFSET 0.000000 0.000000 2.741241
													CHANNELS 6 Xposition Yposition Zposition Zrotation Yrotation Xrotation
													End Site
													{
														OFFSET 0.000000 0.000000 0.100006
													}
												}
											}
										}
									}
									JOINT LeftHandRing1
									{
										OFFSET -0.086761 2.267456 8.921707
										CHANNELS 6 Xposition Yposition Zposition Zrotation Yrotation Xrotation
										JOINT LeftHandRing2
										{
											OFFSET 0.000000 0.000000 4.061096
											CHANNELS 6 Xposition Yposition Zposition Zrotation Yrotation Xrotation
											JOINT LeftHandRing3
											{
												OFFSET 0.000000 0.000000 3.654984
												CHANNELS 6 Xposition Yposition Zposition Zrotation Yrotation Xrotation
												JOINT LeftHandRing4
												{
													OFFSET 0.000000 0.000000 2.741241
													CHANNELS 6 Xposition Yposition Zposition Zrotation Yrotation Xrotation
													End Site
													{
														OFFSET 0.000000 0.000000 0.100006
													}
												}
											}
										}
									}
									JOINT LeftHandPinky1
									{
										OFFSET 0.173492 4.467224 7.976990
										CHANNELS 6 Xposition Yposition Zposition Zrotation Yrotation Xrotation
										JOINT LeftHandPinky2
										{
											OFFSET 0.000000 0.000000 3.350403
											CHANNELS 6 Xposition Yposition Zposition Zrotation Yrotation Xrotation
											JOINT LeftHandPinky3
											{
												OFFSET 0.000000 0.000000 2.842758
												CHANNELS 6 Xposition Yposition Zposition Zrotation Yrotation Xrotation
												JOINT LeftHandPinky4
												{
													OFFSET 0.000000 0.000000 2.639709
													CHANNELS 6 Xposition Yposition Zposition Zrotation Yrotation Xrotation
													End Site
													{
														OFFSET 0.000000 0.000000 0.100006
													}
												}
											}
										}
									}
									JOINT LeftForeArmEnd
									{
										OFFSET 0.000000 0.000000 0.000000
										CHANNELS 6 Xposition Yposition Zposition Zrotation Yrotation Xrotation
										End Site
										{
											OFFSET 0.000000 0.000000 0.100006
										}
									}
								}
								JOINT LeftArmEnd
								{
									OFFSET 0.000000 0.000000 0.000000
									CHANNELS 6 Xposition Yposition Zposition Zrotation Yrotation Xrotation
									End Site
									{
										OFFSET 0.000000 0.000000 0.100006
									}
								}
							}
						}
					}
				}
			}
		}
	}
	JOINT RightUpLeg
	{
		OFFSET -11.289948 0.000000 0.000000
		CHANNELS 6 Xposition Yposition Zposition Zrotation Yrotation Xrotation
		JOINT RightLeg
		{
			OFFSET 0.000000 0.000000 -38.200329
			CHANNELS 6 Xposition Yposition Zposition Zrotation Yrotation Xrotation
			JOINT RightFoot
			{
				OFFSET 0.000000 0.000000 -39.900856
				CHANNELS 6 Xposition Yposition Zposition Zrotation Yrotation Xrotation
				JOINT RightToeBase
				{
					OFFSET 0.000000 -15.261658 0.000002
					CHANNELS 6 Xposition Yposition Zposition Zrotation Yrotation Xrotation
					JOINT RightToeBaseEnd
					{
						OFFSET 0.000000 -7.370728 0.000000
						CHANNELS 6 Xposition Yposition Zposition Zrotation Yrotation Xrotation
						End Site
						{
							OFFSET 0.000000 0.000000 0.100000
						}
					}
				}
				JOINT RightLegEnd
				{
					OFFSET 0.000000 0.000000 0.000000
					CHANNELS 6 Xposition Yposition Zposition Zrotation Yrotation Xrotation
					End Site
					{
						OFFSET 0.000000 0.000000 0.100000
					}
				}
			}
			JOINT RightUpLegEnd
			{
				OFFSET 0.000000 0.000000 0.000000
				CHANNELS 6 Xposition Yposition Zposition Zrotation Yrotation Xrotation
				End Site
				{
					OFFSET 0.000000 0.000000 0.099998
				}
			}
		}
	}
	JOINT LeftUpLeg
	{
		OFFSET 11.315674 0.000000 0.000000
		CHANNELS 6 Xposition Yposition Zposition Zrotation Yrotation Xrotation
		JOINT LeftLeg
		{
			OFFSET 0.000000 0.000000 -38.200329
			CHANNELS 6 Xposition Yposition Zposition Zrotation Yrotation Xrotation
			JOINT LeftFoot
			{
				OFFSET 0.000000 0.000000 -39.900856
				CHANNELS 6 Xposition Yposition Zposition Zrotation Yrotation Xrotation
				JOINT LeftToeBase
				{
					OFFSET 0.000000 -15.261658 0.000002
					CHANNELS 6 Xposition Yposition Zposition Zrotation Yrotation Xrotation
					JOINT LeftToeBaseEnd
					{
						OFFSET 0.000000 -7.539978 0.000000
						CHANNELS 6 Xposition Yposition Zposition Zrotation Yrotation Xrotation
						End Site
						{
							OFFSET 0.000000 0.000000 0.100000
						}
					}
				}
				JOINT LeftLegEnd
				{
					OFFSET 0.000000 0.000000 0.000000
					CHANNELS 6 Xposition Yposition Zposition Zrotation Yrotation Xrotation
					End Site
					{
						OFFSET 0.000000 0.000000 0.100000
					}
				}
			}
			JOINT LeftUpLegEnd
			{
				OFFSET 0.000000 0.000000 0.000000
				CHANNELS 6 Xposition Yposition Zposition Zrotation Yrotation Xrotation
				End Site
				{
					OFFSET 0.000000 0.000000 0.099998
				}
			}
		}
	}
}
MOTION
Frames: 2
Frame Time: 0.016667
-14.044159 -11.796631 88.013023 48.249290 2.497870 -3.982408 0.000007 2.080080 8.814265 -0.188366 -1.674912 6.811831 0.000014 -0.000012 8.844145 0.288768 2.178706 3.119249 0.000015 -0.000020 11.682266 -4.135966 -0.766336 2.975843 -0.000008 0.000057 11.746707 -1.554529 -0.601217 1.288865 -0.000008 -0.000006 17.658268 -17.186699 -24.143288 -0.689774 0.000002 -0.000061 5.101492 -9.252530 -2.186447 -10.391855 0.000008 0.000008 5.101507 -0.389267 -4.193802 -18.423057 0.000012 -0.000001 11.655066 0.000000 0.000002 0.000000 -2.625386 -0.000009 11.175213 5.502361 -89.061794 -0.122273 -0.000031 -0.000027 10.434700 13.435098 -58.461181 -24.074516 -0.000008 0.000000 29.628410 28.433832 0.667974 44.792951 -0.000011 0.000077 22.857594 -6.169909 28.295700 -3.815590 -2.867332 -2.944321 3.959526 32.267439 -14.071147 56.625055 0.000008 -0.000015 3.350403 -5.725454 4.732196 -10.867156 -0.000019 0.000011 3.756514 -3.879467 3.402724 -7.492944 0.000005 -0.000055 3.147354 -0.000000 -0.000002 0.000002 -0.086784 -2.345268 10.030884 -5.829868 17.307392 13.325937 -0.000028 -0.000049 4.061096 0.713899 0.000095 0.000124 -0.000041 -0.000071 3.248878 0.201021 0.000001 0.000659 -0.000019 -0.000012 2.639703 -0.000001 -0.000002 -0.000000 0.104076 -0.006840 9.502960 -0.829043 15.819843 9.521251 -0.000032 -0.000026 4.568717 0.582410 -0.000112 -0.000050 -0.000032 0.000026 3.654973 0.191521 -0.000001 0.000094 -0.000044 -0.000010 2.741265 0.000003 0.000001 -0.000002 0.086758 2.267456 8.921700 7.229987 14.109004 4.783497 -0.000008 -0.000046 4.061111 -1.160288 -0.056213 0.001689 -0.000013 0.000014 3.654984 -0.125412 0.029569 -0.006974 -0.000031 -0.000003 2.741231 -0.000000 -0.000000 -0.000002 -0.173542 4.467125 7.977028 15.661803 13.447887 -0.769696 -0.000017 -0.000080 3.350425 -2.051455 -0.000180 0.000400 -0.000022 -0.000033 2.842753 -0.044645 0.000075 0.000126 -0.000029 -0.000041 2.639730 -0.000001 0.000000 -0.000001 0.000002 -0.000014 0.000010 0.000003 -0.000001 0.000001 0.000011 0.000003 -0.000002 0.000000 -0.000000 0.000000 2.625401 0.000023 11.175213 -5.012062 82.243940 -0.159266 0.000023 -0.000009 10.813614 -0.562998 68.890681 -19.635295 0.000050 -0.000023 28.724785 -11.923778 -1.503111 63.130298 0.644356 0.328805 25.716164 24.203581 -43.921764 -16.327419 2.867218 -2.944275 3.959518 -32.750573 12.655494 59.096859 -0.000014 -0.000051 3.350430 2.747852 -2.501745 -5.370155 -0.000061 -0.000007 3.756508 1.883132 -1.764808 -3.715673 -0.000056 -0.000086 3.100008 0.000003 -0.000000 -0.000000 0.086740 -2.345284 10.030899 -12.851330 -20.403319 25.764935 -0.000021 0.000008 4.061086 0.722784 0.000542 -0.000028 -0.000029 -0.000018 3.248868 0.209474 0.000001 0.001890 -0.000023 0.000002 2.639693 -0.000000 0.000002 0.000000 -0.104140 -0.006794 9.502953 -7.974546 -22.271184 19.514754 0.000007 -0.000092 4.568739 0.703866 0.058095 0.000819 -0.000007 -0.000040 3.654988 0.175338 -0.032316 -0.000262 -0.000025 0.000006 2.741247 -0.000001 0.000001 -0.000000 -0.086830 2.267470 8.921707 0.586140 -23.480107 10.601617 -0.000020 0.000006 4.061087 -1.154786 0.000259 -0.000324 -0.000069 0.000024 3.654972 -0.119958 -0.000005 0.000026 -0.000019 -0.000003 2.741230 0.000000 0.000000 -0.000000 0.173500 4.467173 7.976990 10.088376 -21.837158 3.045841 -0.000054 0.000019 3.350401 -2.203268 -0.000002 -0.000181 -0.000048 0.000018 2.842759 -0.171951 -0.000001 -0.000096 -0.000075 0.000004 2.639699 0.000000 -0.000001 0.000000 -0.000019 0.000006 0.000006 -0.000000 -0.000001 0.000001 -0.000016 0.000013 0.000005 -0.000004 0.000002 -0.000001 -11.289962 0.000001 -0.000019 -22.895914 6.954009 -6.839226 0.000010 0.000038 -38.200333 -1.286123 0.156400 7.036862 -0.000009 -0.000021 -39.900913 -26.984290 -1.677685 38.145773 -0.000011 -15.261698 0.000024 1.368671 1.767212 -22.713984 0.000001 -7.370667 -0.000002 0.000000 0.000001 0.000001 0.000001 -0.000002 -0.000000 0.000000 -0.000000 -0.000003 0.000011 0.000066 -0.000007 -0.000001 -0.000000 -0.000000 11.315691 -0.000034 0.000013 -12.139801 -5.155218 1.974793 0.000009 0.000023 -38.200321 0.654477 -0.264584 22.010759 0.000053 0.000010 -39.900867 9.734577 2.565047 10.548922 -0.000011 -15.261642 0.000032 -1.227540 -0.717522 -21.166188 -0.000031 -7.540008 -0.000001 -0.000006 0.000000 -0.000000 0.000015 -0.000005 0.000000 0.000001 -0.000001 0.000001 0.000017 0.000112 0.000001 0.000002 -0.000001 -0.000000 
-13.781158 -11.045532 88.090179 49.022204 2.279677 -4.125053 -0.000002 2.080101 8.814257 -0.217922 -1.619725 6.893257 -0.000003 -0.000014 8.844133 0.313847 2.222694 3.175690 0.000003 -0.000015 11.682283 -3.958426 -0.668995 3.010983 -0.000008 0.000027 11.746693 -1.498451 -0.438423 1.250699 -0.000011 -0.000019 17.658251 -17.337172 -24.083957 -0.753988 0.000009 -0.000011 5.101527 -9.489020 -2.258782 -10.522074 -0.000009 0.000010 5.101513 -0.421683 -4.326539 -18.309514 0.000008 -0.000002 11.655065 0.000001 0.000002 0.000001 -2.625395 0.000001 11.175213 5.605264 -89.242097 -0.182550 -0.000023 -0.000004 10.434708 14.812189 -57.930973 -25.148166 -0.000011 0.000031 29.628424 29.043757 0.620087 43.448408 -0.000008 -0.000043 22.857594 -6.671506 28.425502 -3.726278 -2.867310 -2.944290 3.959534 32.267429 -14.071146 56.625192 -0.000040 -0.000015 3.350409 -5.725469 4.732176 -10.867384 -0.000026 -0.000031 3.756496 -3.879437 3.402756 -7.492832 0.000009 -0.000063 3.147335 -0.000000 -0.000001 0.000003 -0.086784 -2.345253 10.030907 -5.859473 17.101218 13.375394 0.000000 -0.000071 4.061084 0.717389 0.000057 0.000126 -0.000033 -0.000047 3.248883 0.204308 0.000004 0.000680 -0.000022 -0.000003 2.639692 -0.000000 0.000001 -0.000002 0.104080 -0.006809 9.502953 -0.841744 15.745948 9.510058 -0.000016 0.000015 4.568750 0.583717 -0.034657 -0.000403 -0.000063 -0.000019 3.654984 0.194046 0.019374 0.000155 -0.000070 0.000007 2.741251 -0.000002 0.000000 -0.000001 0.086754 2.267477 8.921688 7.253006 14.199804 4.873961 0.000015 -0.000068 4.061137 -1.162975 -0.000026 0.000557 0.000012 -0.000075 3.655011 -0.127510 -0.000005 -0.007173 -0.000047 0.000028 2.741238 0.000003 0.000001 0.000003 -0.173565 4.467115 7.977013 15.741081 13.708448 -0.449970 0.000005 -0.000042 3.350395 -2.052934 0.000008 0.000398 -0.000002 -0.000089 2.842752 -0.045908 -0.000004 0.000125 -0.000046 -0.000046 2.639715 -0.000000 -0.000000 0.000001 -0.000002 0.000035 -0.000017 0.000004 0.000002 -0.000002 -0.000006 -0.000003 0.000014 0.000000 0.000001 0.000001 2.625381 -0.000006 11.175206 -4.955901 82.402448 -0.157132 0.000008 0.000010 10.813614 -3.677681 67.665967 -22.593241 0.000038 -0.000069 28.724760 -13.615017 1.097043 61.921033 0.644363 0.328779 25.716103 27.432374 -44.028660 -16.482418 2.867287 -2.944290 3.959480 -32.750504 12.655512 59.096894 0.000018 -0.000039 3.350419 2.747822 -2.501733 -5.369965 -0.000055 -0.000026 3.756535 1.883153 -1.764857 -3.715879 -0.000063 0.000005 3.099999 -0.000001 -0.000001 -0.000001 0.086689 -2.345276 10.030876 -12.945876 -20.791355 26.128650 -0.000028 -0.000026 4.061075 0.725915 0.000379 -0.000031 -0.000023 0.000022 3.248849 0.212415 -0.000004 0.001952 -0.000034 0.000005 2.639701 -0.000001 -0.000001 0.000000 -0.104126 -0.006779 9.502945 -8.040207 -22.569949 19.708519 -0.000008 -0.000064 4.568742 0.706898 0.000196 0.000108 -0.000008 -0.000037 3.654981 0.177956 0.000000 -0.000166 -0.000031 0.000000 2.741258 -0.000000 -0.000001 -0.000000 -0.086811 2.267449 8.921692 0.555563 -23.658155 10.578132 -0.000067 0.000017 4.061101 -1.156857 0.000228 -0.000328 -0.000040 0.000027 3.654973 -0.121566 -0.000001 0.000027 -0.000037 0.000002 2.741245 -0.000000 0.000000 -0.000000 0.173508 4.467157 7.977009 10.087083 -21.816847 2.839170 -0.000037 0.000001 3.350417 -2.206457 -0.044217 0.001521 -0.000048 0.000024 2.842767 -0.174646 0.023998 -0.000171 0.000012 0.000002 2.639716 0.000000 0.000000 -0.000001 -0.000015 -0.000006 0.000038 0.000000 -0.000000 0.000001 0.000002 0.000001 -0.000017 -0.000001 -0.000007 0.000002 -11.289948 0.000021 0.000015 -23.432641 7.757585 -7.048231 0.000003 0.000004 -38.200333 -1.255464 0.149894 6.807394 -0.000018 -0.000028 -39.900932 -26.931731 -1.497124 39.542007 -0.000001 -15.261739 0.000043 1.266782 1.674958 -23.489275 -0.000001 -7.370666 -0.000001 -0.000000 0.000000 -0.000000 0.000003 -0.000002 -0.000003 0.000001 -0.000000 -0.000001 0.000011 0.000006 -0.000005 -0.000001 0.000000 0.000000 11.315719 -0.000058 0.000006 -12.678465 -4.437135 1.855329 0.000021 0.000010 -38.200333 0.601045 -0.238114 21.611092 0.000001 0.000027 -39.900856 9.649872 2.007590 10.824926 -0.000017 -15.261637 0.000022 -1.175413 -0.618231 -21.193660 -0.000021 -7.539971 -0.000001 -0.000001 0.000001 -0.000000 0.000009 -0.000017 0.000000 0.000003 -0.000001 0.000002 0.000015 -0.000001 -0.000000 0.000000 0.000000 -0.000002 
